Coordinates
version=1
nRows=22
nColumns=24
inDegrees=yes

Units are S.I. units (second, meters, Newtons, ...)
Angles are in degrees.

endheader
time	pelvis_tilt	pelvis_list	pelvis_rotation	pelvis_tx	pelvis_ty	pelvis_tz	hip_flexion_r	hip_adduction_r	hip_rotation_r	knee_angle_r	ankle_angle_r	subtalar_angle_r	mtp_angle_r	hip_flexion_l	hip_adduction_l	hip_rotation_l	knee_angle_l	ankle_angle_l	subtalar_angle_l	mtp_angle_l	lumbar_extension	lumbar_bending	lumbar_rotation
      4.37000000	    -10.84019872	      8.37131207	      2.34229425	     -0.12113359	     -0.01914670	      0.61088116	     25.61436785	    -13.37921317	     -3.82771828	    -64.40858999	     -3.82739769	     -0.87458325	     12.99277429	     19.73916106	     13.49100749	    -11.52697154	    -16.51433350	      2.35048423	      9.58351162	     -3.16672009	      8.68340531	     -9.33413281	      0.21880597
      4.37500000	    -10.83723195	      8.08563292	      2.77370646	     -0.11453338	     -0.01791063	      0.61014870	     26.22931960	    -13.21092415	     -4.18606957	    -63.83438029	     -3.52698353	     -0.45921719	     13.03399686	     18.82525662	     13.47263542	    -10.59452122	    -15.79582207	      2.42631107	      9.38616734	     -3.46378103	      8.67497257	     -9.09899039	     -0.32364606
      4.38000000	    -10.81127499	      7.80110805	      3.17142769	     -0.10796015	     -0.01673459	      0.60947236	     26.81633238	    -13.02386772	     -4.50840584	    -63.19856340	     -3.28993227	     -0.16815563	     13.01014964	     17.88286434	     13.43251208	     -9.60662081	    -15.05754272	      2.49800919	      9.08169094	     -3.80317007	      8.64064637	     -8.85888567	     -0.84105241
      4.38500000	    -10.78037962	      7.53051825	      3.55369570	     -0.10139406	     -0.01564867	      0.60883666	     27.38973626	    -12.84709057	     -4.81964709	    -62.50861303	     -3.09959416	      0.00274873	     12.92924699	     16.93878720	     13.38022845	     -8.63021275	    -14.31973640	      2.56518288	      8.75917716	     -4.16424304	      8.60236918	     -8.63303793	     -1.33260830
      4.39000000	    -10.75086342	      7.26557415	      3.93103895	     -0.09484858	     -0.01465961	      0.60822947	     27.95375886	    -12.67772217	     -5.12858417	    -61.76530815	     -2.95102241	      0.07008457	     12.79946438	     16.00695833	     13.30717036	     -7.68476001	    -13.59546659	      2.63745595	      8.45782888	     -4.51465492	      8.56383125	     -8.41474176	     -1.81695021
      4.39500000	    -10.72512751	      6.99950381	      4.28767607	     -0.08835529	     -0.01377682	      0.60768872	     28.52038828	    -12.49391947	     -5.40555429	    -60.97384293	     -2.85772196	      0.04442022	     12.62475597	     15.10068551	     13.20013950	     -6.78567848	    -12.89625798	      2.72726026	      8.18945494	     -4.82847524	      8.52178208	     -8.19685618	     -2.31212828
      4.40000000	    -10.68599983	      6.75732541	      4.64613513	     -0.08182581	     -0.01297093	      0.60714343	     29.04924767	    -12.35281143	     -5.70733667	    -60.12770605	     -2.77128352	     -0.07220963	     12.38790073	     14.17176311	     13.10275908	     -5.87165160	    -12.18281610	      2.79177865	      7.87767445	     -5.17271981	      8.47134016	     -8.00209984	     -2.76728841
      4.40500000	    -10.65464498	      6.52007638	      4.98988965	     -0.07532093	     -0.01227567	      0.60663252	     29.57732169	    -12.21682080	     -5.99774511	    -59.23340487	     -2.70844587	     -0.25684035	     12.09613384	     13.26914939	     12.98440357	     -5.00736716	    -11.49172498	      2.86630025	      7.59174717	     -5.49590639	      8.42756389	     -7.81138333	     -3.20557882
      4.41000000	    -10.60516328	      6.30752955	      5.32485844	     -0.06878333	     -0.01166307	      0.60610531	     30.06358947	    -12.12422817	     -6.30625139	    -58.29045797	     -2.61703294	     -0.45338689	     11.71609894	     12.33782438	     12.87832110	     -4.11602646	    -10.78549519	      2.92080557	      7.22609706	     -5.87737627	      8.37032643	     -7.63893064	     -3.58544025
      4.41500000	    -10.59179810	      6.08112887	      5.64215725	     -0.06237074	     -0.01120067	      0.60570251	     30.59829045	    -11.99269315	     -6.56586390	    -57.30934212	     -2.61542129	     -0.78963727	     11.31617728	     11.50323884	     12.71888886	     -3.37142973	    -10.15610677	      3.03430464	      7.04552604	     -6.12393092	      8.33104995	     -7.46420013	     -4.03803474
      4.42000000	    -10.53251411	      5.87920227	      5.95956680	     -0.05584994	     -0.01077760	      0.60522557	     31.03862943	    -11.91941719	     -6.87945262	    -56.26630931	     -2.54085198	     -1.07529752	     10.79504463	     10.58998189	     12.58155918	     -2.54301643	     -9.48842286	      3.10780640	      6.70757539	     -6.46768595	      8.26116376	     -7.30075355	     -4.40683052
      4.42500000	    -10.50903329	      5.68463938	      6.25166168	     -0.04944418	     -0.01051090	      0.60485561	     31.52963723	    -11.82998724	     -7.13236074	    -55.19319866	     -2.53905412	     -1.46910897	     10.25534115	      9.76398724	     12.42134596	     -1.84015597	     -8.88466533	      3.23137082	      6.51340922	     -6.72439418	      8.20944028	     -7.14951620	     -4.82756649
      4.43000000	    -10.45540335	      5.49354979	      6.53490311	     -0.04295665	     -0.01030220	      0.60445540	     31.94676747	    -11.76552304	     -7.43588761	    -54.05628054	     -2.47045307	     -1.80402721	      9.59924277	      8.89521563	     12.25528229	     -1.11121775	     -8.26745443	      3.34417940	      6.22897250	     -7.04549375	      8.14146170	     -6.99444460	     -5.17099451
      4.43500000	    -10.40109172	      5.31310211	      6.78302599	     -0.03650445	     -0.01019458	      0.60411515	     32.36024428	    -11.69030327	     -7.67593700	    -52.88614024	     -2.41774482	     -2.06614882	      8.80144344	      8.03561807	     12.08033287	     -0.37544708	     -7.65872899	      3.47824359	      5.91632238	     -7.42623748	      8.06657361	     -6.84242036	     -5.53897256
      4.44000000	    -10.36146941	      5.15870518	      7.04430257	     -0.03010087	     -0.01022356	      0.60379552	     32.76954342	    -11.66361585	     -7.97593920	    -51.66789051	     -2.36501469	     -2.50441749	      8.08686992	      7.23918461	     11.91887238	      0.19991576	     -7.13040145	      3.65466933	      5.77512009	     -7.69201089	      7.99277625	     -6.72497252	     -5.89200534
      4.44500000	    -10.32753602	      5.01476788	      7.27944586	     -0.02373334	     -0.01035198	      0.60353835	     33.17803790	    -11.63268243	     -8.23923067	    -50.40707970	     -2.36232950	     -2.94853180	      7.37805768	      6.46351771	     11.75127740	      0.74431244	     -6.61635286	      3.84887717	      5.66136670	     -7.93451421	      7.91881796	     -6.61852922	     -6.26095609
      4.45000000	    -10.24571417	      4.85371562	      7.48381190	     -0.01725386	     -0.01050367	      0.60324294	     33.49030600	    -11.58520244	     -8.52341132	    -49.08657659	     -2.24685099	     -3.13250594	      6.40112011	      5.61412969	     11.55756477	      1.39370831	     -6.07321418	      4.04246559	      5.35826492	     -8.37457169	      7.81563136	     -6.46657897	     -6.56770568
      4.45500000	    -10.31465886	      4.71017645	      7.67401370	     -0.01088270	     -0.01093216	      0.60303697	     33.97643451	    -11.55117953	     -8.77474176	    -47.71156511	     -2.26905351	     -3.61975317	      5.91519064	      5.01839858	     11.38135245	      1.70352431	     -5.66334228	      4.29346199	      5.40030097	     -8.46771089	      7.86455319	     -6.35615984	     -6.86487087
      4.46000000	    -10.12061281	      4.59648873	      7.87781805	     -0.00445441	     -0.01117579	      0.60280211	     34.11941511	    -11.55423938	     -9.11680976	    -46.31557995	     -2.08079332	     -3.73112490	      4.80584483	      4.06819865	     11.20259785	      2.37721470	     -5.16473446	      4.54315108	      5.08973875	     -8.98114058	      7.61081037	     -6.24987778	     -7.21574281
      4.46500000	    -10.16965626	      4.47855158	      8.05519884	      0.00192665	     -0.01175171	      0.60258459	     34.54364997	    -11.56551459	     -9.43895958	    -44.86931286	     -2.11393201	     -4.09763913	      4.23374084	      3.46776269	     11.04131964	      2.69452475	     -4.79008317	      4.81342220	      5.10111474	     -9.13336550	      7.63175471	     -6.15546478	     -7.52500029
      4.47000000	    -10.03392127	      4.37501862	      8.25958648	      0.00826287	     -0.01221159	      0.60244646	     34.71665653	    -11.57544053	     -9.78280482	    -43.37922428	     -1.99764562	     -4.23381681	      3.38158527	      2.65498742	     10.85420956	      3.22151921	     -4.40604383	      5.11873657	      5.00341656	     -9.47018360	      7.42277778	     -6.07699648	     -7.85548524
      4.47500000	     -9.96563585	      4.26549792	      8.40032150	      0.01469866	     -0.01285600	      0.60228817	     34.95798984	    -11.56560502	    -10.10729105	    -41.87001334	     -1.81927086	     -4.18822981	      2.48284670	      1.93089994	     10.67472538	      3.65906536	     -4.05380583	      5.45174336	      4.81915639	     -9.87569827	      7.31458462	     -5.96905415	     -8.15493475
